<svg id="Capa_1" enable-background="new 0 0 512 512"  viewBox="0 0 512 512" height="25px" width="25px" fill="#E20074" xmlns="http://www.w3.org/2000/svg">  
<path d="m505.417 313.929c-9.268 40.051-27.92 76.497-53.53 106.893-13.479 16.008-28.891 30.344-45.871 42.632l-212.25-212.25 124.458-124.468z" fill="#2a4cba"/> 
<g fill="#f7f7f7"><path d="m451.887 420.822c-46.958 55.756-117.29 91.178-195.887 91.178s-148.929-35.422-195.887-91.178c22.026-45.233 101.386-78.722 195.887-78.722 77.448 0 144.739 22.497 178.625 55.515 7.461 7.272 13.302 15.047 17.262 23.207z"/><path d="m318.227 126.741c34.374 34.374 34.374 90.087 0 124.461s-90.087 34.374-124.461 0-34.374-90.087 0-124.461 90.088-34.374 124.461 0z"/></g></svg>