<svg xmlns:dc="http://purl.org/dc/elements/1.1/" xmlns:cc="http://creativecommons.org/ns#" xmlns:rdf="http://www.w3.org/1999/02/22-rdf-syntax-ns#" xmlns:svg="http://www.w3.org/2000/svg" xmlns="http://www.w3.org/2000/svg" xmlns:sodipodi="http://sodipodi.sourceforge.net/DTD/sodipodi-0.dtd" xmlns:inkscape="http://www.inkscape.org/namespaces/inkscape" version="1.1" x="0px" y="0px" viewBox="0 0 100 125"><g transform="translate(0,-952.36218)"><path d="m 3.330952,1016.5043 2.1213,2.1213 7.0711,7.0711 2.1213,2.1213 2.1213,-2.1213 c 2.7587,-2.7588 7.1408,-2.7587 9.8995,0 2.7588,2.7588 2.7588,7.1407 0,9.8994 l -2.1213,2.1214 2.1213,2.1213 7.0711,7.0711 2.1213,2.1213 2.1213,-2.1213 56.568496,-56.56856 2.1214,-2.12132 -2.1214,-2.12132 -7.071,-7.07107 -2.1213,-2.12132 -2.1214,2.12132 c -2.758696,2.75878 -7.140596,2.75884 -9.899496,0 -2.7586,-2.75865 -2.7587,-7.14079 0,-9.89949 l 2.1214,-2.12132 -2.1214,-2.12132 -7.071,-7.07107 -2.1213,-2.12131 -2.1214,2.12131 -56.5685,56.56847 -2.1213,2.1214 z m 8.4853,0 36.7695,-36.76956 24.0416,24.04156 -36.7695,36.7696 -3.1157,-3.1157 c 3.0715,-5.0046 2.4872,-11.6549 -1.8341,-15.9762 -4.3211,-4.3211 -10.9936,-4.9276 -15.9983,-1.8561 l -3.0935,-3.0936 z m 41.0121,-41.0122 11.3138,-11.31371 3.0935,3.09359 c -3.0715,5.00466 -2.465,11.67713 1.8562,15.99829 4.3213,4.32125 10.9716,4.90558 15.976196,1.83406 l 3.1157,3.11569 -11.313696,11.31371 -24.0417,-24.04163 z m -16.9705,21.2132 3.9333,9.2366 -6.8059,7.6897 10.0983,-1.0827 5.0382,8.662 2.3202,-9.9215 9.9215,-2.3202 -8.662,-5.0382 1.0829,-10.09832 -7.6899,6.80592 -9.2366,-3.9333 z" style="text-indent:0;text-transform:none;direction:ltr;block-progression:tb;baseline-shift:baseline;color:#000000;enable-background:accumulate;" fill="#000000" fill-opacity="1" stroke="none" marker="none" visibility="visible" display="inline" overflow="visible"/></g><text x="0" y="115" fill="#000000" font-size="5px" font-weight="bold" font-family="'Helvetica Neue', Helvetica, Arial-Unicode, Arial, Sans-serif">Created by Three Six Five</text><text x="0" y="120" fill="#000000" font-size="5px" font-weight="bold" font-family="'Helvetica Neue', Helvetica, Arial-Unicode, Arial, Sans-serif">from the Noun Project</text></svg>