<svg  viewBox="0 0 128 128"  fill="#ffffff"	  height="25px" width="25px"
 xmlns="http://www.w3.org/2000/svg"><g id="Circle_Grid" data-name="Circle Grid"><circle cx="64" cy="64" fill="#ffffff" r="64"/></g><g id="icon"><g fill="#eeefee"><path d="m87.055 26.659 2.66-2.659a31.9 31.9 0 0 1 9.4 22.7 31.9 31.9 0 0 1 -9.4 22.7l-2.659-2.659a28.351 28.351 0 0 0 0-40.09z"/><path d="m80.264 59.15a17.621 17.621 0 0 0 0-24.891l2.66-2.659a21.387 21.387 0 0 1 0 30.21z"/><path d="m73.473 51.551a6.864 6.864 0 0 0 0-9.692l2.66-2.659a10.624 10.624 0 0 1 0 15.011z"/><path d="m40.945 26.659-2.66-2.659a31.9 31.9 0 0 0 -9.4 22.7 31.9 31.9 0 0 0 9.4 22.7l2.659-2.659a28.351 28.351 0 0 1 0-40.09z"/><path d="m47.736 59.15a17.621 17.621 0 0 1 0-24.891l-2.66-2.659a21.387 21.387 0 0 0 0 30.21z"/><path d="m54.527 51.551a6.864 6.864 0 0 1 0-9.692l-2.66-2.659a10.624 10.624 0 0 0 0 15.011z"/></g><path d="m81.933 106.836-17.933-55.588-17.933 55.588a1.679 1.679 0 0 1 -2.114 1.083 1.679 1.679 0 0 1 -1.083-2.119l21.13-65.492 21.13 65.5a1.679 1.679 0 0 1 -1.083 2.114 1.679 1.679 0 0 1 -2.114-1.086z" fill="#575b6d"/><path d="m50.595 74.826h23.009v3.146h-23.009z" fill="#575b6d" transform="matrix(.859 -.512 .512 .859 -30.371 42.601)"/><path d="m64.327 64.894h3.146v23.009h-3.146z" fill="#575b6d" transform="matrix(.512 -.859 .859 .512 -33.472 93.856)"/><path d="m44.365 91.363h34.186v2.868h-34.186z" fill="#575b6d" transform="matrix(.887 -.461 .461 .887 -35.855 38.773)"/><path d="m65.108 75.704h2.868v34.186h-2.868z" fill="#575b6d" transform="matrix(.461 -.887 .887 .461 -46.482 109.067)"/><circle cx="64" cy="46.704" fill="#575b6d" r="6.901"/></g></svg>